<svg id="svg" xmlns="http://www.w3.org/2000/svg" xmlns:xlink="http://www.w3.org/1999/xlink" width="400" height="300" viewBox="0, 0, 400,300"><g id="svgg"><path id="path0" d="M203.755 54.344 C 204.266 55.171,203.934 55.342,202.721 54.876 C 201.618 54.453,201.188 54.602,201.598 55.266 C 201.964 55.857,201.739 56.972,201.099 57.744 C 198.820 60.489,197.815 75.745,199.616 80.246 C 201.269 84.379,199.087 94.596,196.847 93.212 C 194.348 91.667,173.958 94.122,173.958 95.967 C 173.958 97.730,174.779 97.821,185.257 97.221 L 196.556 96.575 197.159 106.881 C 197.491 112.550,198.309 118.702,198.977 120.553 C 200.166 123.853,194.180 132.374,192.119 130.314 C 191.775 129.969,191.630 130.156,191.797 130.729 C 192.262 132.321,185.920 141.823,185.005 140.907 C 184.563 140.466,184.358 140.597,184.549 141.200 C 185.118 142.999,179.975 153.104,178.845 152.406 C 178.255 152.041,178.127 152.285,178.550 152.970 C 179.545 154.580,176.985 161.521,175.692 160.721 C 175.134 160.377,174.974 160.573,175.335 161.157 C 175.696 161.741,174.650 166.384,173.011 171.474 C 168.726 184.781,165.207 211.461,167.736 211.459 C 168.038 211.459,168.228 213.451,168.158 215.885 C 167.990 221.765,170.325 236.686,171.862 239.559 C 172.535 240.816,172.841 242.089,172.543 242.388 C 172.245 242.686,172.894 243.889,173.985 245.060 C 175.077 246.232,175.679 247.661,175.324 248.235 C 174.969 248.810,175.151 248.988,175.729 248.631 C 176.903 247.905,181.614 252.414,180.669 253.359 C 180.339 253.688,180.921 253.888,181.962 253.802 C 183.003 253.716,183.743 254.215,183.606 254.910 C 183.453 255.690,184.018 255.922,185.079 255.515 C 186.326 255.036,186.565 255.234,185.947 256.234 C 185.345 257.209,185.494 257.367,186.455 256.773 C 187.312 256.243,188.336 256.643,189.221 257.852 C 189.993 258.909,190.625 259.495,190.625 259.154 C 190.625 258.813,193.789 259.651,197.656 261.016 C 201.523 262.381,206.473 263.508,208.655 263.520 C 210.837 263.532,212.387 263.924,212.098 264.392 C 210.905 266.321,221.260 264.619,223.334 262.545 C 225.274 260.606,225.298 260.417,223.608 260.417 C 222.587 260.417,221.971 260.063,222.238 259.630 C 222.673 258.926,219.015 258.596,208.594 258.397 C 206.732 258.361,205.208 257.907,205.208 257.389 C 205.208 256.870,204.271 256.690,203.125 256.990 C 201.914 257.306,201.042 257.022,201.042 256.310 C 201.042 255.636,200.577 255.373,200.009 255.724 C 198.522 256.642,189.394 250.107,190.244 248.733 C 190.638 248.095,190.470 247.889,189.862 248.265 C 188.807 248.917,186.992 247.418,186.286 245.313 C 186.095 244.740,185.622 244.376,185.236 244.505 C 184.224 244.842,179.118 234.254,179.778 233.187 C 180.082 232.695,179.923 232.292,179.425 232.292 C 178.529 232.292,175.586 222.814,175.543 219.792 C 175.531 218.932,175.086 217.554,174.555 216.728 C 173.594 215.235,172.880 199.186,173.704 197.612 C 173.942 197.158,174.288 194.345,174.473 191.362 C 174.895 184.551,178.184 170.747,179.231 171.394 C 179.662 171.660,179.785 171.003,179.506 169.935 C 177.118 160.804,208.294 121.634,214.766 125.634 C 215.462 126.064,215.661 125.900,215.250 125.235 C 214.843 124.577,215.535 123.968,216.912 123.772 C 221.564 123.112,219.919 119.233,215.104 119.512 C 208.735 119.881,207.292 120.166,207.292 121.057 C 207.292 121.507,206.577 121.875,205.703 121.875 C 203.350 121.875,201.886 116.924,202.267 110.253 C 202.453 107.012,202.253 104.578,201.823 104.845 C 199.698 106.167,203.208 89.244,205.610 86.590 C 207.724 84.254,207.771 81.657,205.714 80.867 C 201.786 79.360,201.368 64.467,205.114 59.500 L 206.850 57.198 211.228 60.369 C 213.635 62.113,216.664 65.175,217.959 67.174 C 219.253 69.172,221.039 70.813,221.927 70.820 C 222.815 70.828,224.047 71.338,224.664 71.955 C 225.465 72.757,226.990 72.716,230.002 71.814 C 234.225 70.548,238.121 71.070,237.076 72.761 C 236.770 73.256,238.575 73.661,241.087 73.661 C 244.429 73.661,245.513 73.294,245.129 72.293 C 243.808 68.851,252.595 63.702,257.634 64.966 C 262.221 66.117,263.157 82.673,258.896 87.282 C 258.005 88.246,256.915 88.347,255.049 87.637 C 251.792 86.399,251.664 88.813,254.745 93.363 C 259.450 100.311,256.266 118.723,250.208 119.604 C 246.208 120.185,249.089 126.042,253.375 126.042 C 255.260 126.042,259.937 120.860,260.960 117.639 C 261.445 116.109,262.154 115.692,263.375 116.217 C 265.881 117.293,275.045 119.937,278.385 120.547 C 280.543 120.941,281.250 120.655,281.250 119.389 C 281.250 118.345,280.362 117.702,278.906 117.692 C 277.001 117.679,276.855 117.484,278.125 116.648 C 279.411 115.801,279.319 115.648,277.604 115.787 C 273.862 116.089,271.741 115.643,272.336 114.680 C 272.657 114.161,272.020 113.971,270.920 114.259 C 269.820 114.547,268.104 114.325,267.106 113.767 C 264.589 112.358,268.070 110.465,277.083 108.338 C 284.274 106.642,285.846 104.621,281.288 102.935 C 279.877 102.413,279.047 102.311,279.443 102.707 C 279.840 103.104,277.245 104.456,273.676 105.711 C 270.107 106.967,266.297 108.382,265.209 108.856 C 263.447 109.623,263.312 109.391,263.976 106.746 C 264.845 103.284,266.047 102.289,274.479 98.060 C 277.917 96.336,281.667 94.161,282.813 93.225 C 286.075 90.563,280.188 92.040,272.268 95.872 C 268.760 97.570,265.630 98.958,265.312 98.958 C 264.033 98.958,263.280 87.116,264.442 85.257 C 265.092 84.214,265.625 82.691,265.625 81.872 C 265.625 81.052,266.188 80.194,266.875 79.965 C 267.837 79.645,267.802 78.123,266.722 73.368 C 265.951 69.969,265.190 66.085,265.031 64.737 C 264.873 63.390,263.738 61.584,262.510 60.723 C 261.282 59.863,260.491 58.600,260.753 57.917 C 261.530 55.893,257.017 56.179,255.569 58.246 C 254.839 59.288,252.857 60.418,251.164 60.757 C 249.472 61.095,246.526 62.717,244.617 64.361 C 241.450 67.088,240.489 67.340,233.667 67.227 C 229.554 67.159,226.418 67.474,226.698 67.927 C 226.977 68.380,226.749 68.750,226.191 68.750 C 224.631 68.750,218.705 60.820,219.559 59.875 C 219.973 59.416,219.789 59.339,219.150 59.704 C 218.510 60.069,217.104 59.376,216.025 58.165 C 212.674 54.404,201.675 50.978,203.755 54.344 M69.166 90.841 C 68.617 91.616,68.437 102.578,68.742 116.667 C 69.280 141.557,68.954 150.586,66.151 188.542 C 65.284 200.286,64.576 212.044,64.579 214.670 C 64.581 217.296,64.232 219.796,63.802 220.226 C 63.372 220.656,62.954 224.132,62.872 227.952 C 62.791 231.771,62.477 237.122,62.175 239.844 C 61.837 242.885,62.037 244.792,62.693 244.792 C 63.353 244.792,63.520 246.481,63.131 249.219 C 61.973 257.369,63.088 262.505,65.671 260.909 C 66.139 260.620,66.773 260.788,67.080 261.284 C 67.386 261.780,69.176 262.046,71.058 261.877 C 90.203 260.147,94.621 259.590,96.158 258.709 C 96.839 258.319,97.061 258.370,96.651 258.824 C 96.242 259.278,96.347 260.473,96.886 261.479 C 97.425 262.486,97.977 264.768,98.113 266.551 C 98.249 268.333,98.779 269.792,99.291 269.792 C 99.804 269.792,99.975 270.438,99.672 271.227 C 99.369 272.017,99.647 273.189,100.290 273.831 C 100.932 274.474,101.130 275.000,100.729 275.000 C 99.933 275.000,101.157 276.486,107.166 282.813 C 111.899 287.795,115.581 290.625,117.332 290.625 C 118.037 290.625,119.934 291.166,121.547 291.827 C 128.016 294.478,130.196 294.691,134.113 293.054 C 135.976 292.276,137.500 291.890,137.500 292.198 C 137.500 292.505,138.672 291.989,140.104 291.050 C 141.536 290.112,142.708 288.827,142.708 288.195 C 142.708 287.563,143.795 286.093,145.124 284.929 C 147.151 283.153,148.859 280.452,149.426 278.125 C 149.496 277.839,150.106 276.611,150.782 275.397 C 151.457 274.184,151.714 272.895,151.352 272.533 C 150.990 272.171,151.269 271.875,151.971 271.875 C 152.673 271.875,152.964 271.416,152.617 270.855 C 152.271 270.294,152.431 269.005,152.974 267.990 C 154.391 265.341,155.188 260.171,155.828 249.479 C 156.137 244.323,156.584 237.526,156.822 234.375 C 157.059 231.224,157.194 226.536,157.121 223.958 C 156.867 214.948,157.123 186.939,157.502 182.292 C 157.944 176.878,154.923 173.247,151.011 174.489 C 149.101 175.095,148.961 175.705,149.616 180.550 C 150.624 188.007,150.630 196.015,149.644 221.354 C 149.176 233.385,148.783 246.395,148.771 250.263 C 148.760 254.132,148.321 257.563,147.796 257.887 C 147.271 258.212,147.069 258.847,147.349 259.299 C 147.628 259.750,147.374 261.710,146.784 263.654 C 146.195 265.597,145.478 268.359,145.191 269.792 C 144.904 271.224,144.228 272.552,143.689 272.743 C 143.150 272.934,142.708 273.895,142.708 274.878 C 142.708 275.862,142.146 277.229,141.458 277.917 C 140.771 278.604,140.548 279.167,140.963 279.167 C 141.378 279.167,140.305 280.718,138.579 282.615 C 134.762 286.810,117.708 287.355,117.708 283.282 C 117.708 282.815,116.676 282.104,115.413 281.704 C 112.731 280.852,110.417 278.747,110.417 277.158 C 110.417 276.544,109.948 276.042,109.375 276.042 C 108.802 276.042,108.451 275.681,108.594 275.239 C 108.997 273.997,105.004 265.625,104.008 265.625 C 100.414 265.625,103.399 258.638,107.031 258.549 C 109.180 258.497,112.109 258.252,113.542 258.006 C 114.974 257.759,116.966 257.498,117.969 257.425 C 119.174 257.337,119.792 256.425,119.792 254.735 C 119.792 251.736,116.566 250.852,107.410 251.338 L 101.798 251.637 102.457 241.704 C 103.296 229.056,104.154 208.242,104.102 201.808 C 104.080 199.078,104.420 196.266,104.858 195.558 C 105.296 194.850,105.706 192.630,105.769 190.625 C 105.833 188.620,106.260 183.410,106.719 179.049 C 107.355 173.000,107.237 170.922,106.220 170.294 C 105.399 169.787,105.144 169.887,105.557 170.554 C 105.925 171.150,105.294 171.882,104.155 172.180 C 102.519 172.608,102.083 173.606,102.083 176.924 C 102.083 179.236,101.677 181.378,101.181 181.684 C 100.685 181.991,100.504 183.417,100.779 184.854 C 101.053 186.290,100.941 188.293,100.529 189.306 C 100.117 190.318,99.578 196.302,99.331 202.604 C 99.085 208.906,98.620 215.234,98.299 216.667 C 97.978 218.099,97.527 226.302,97.298 234.896 C 97.069 243.490,96.802 251.034,96.705 251.661 C 96.607 252.287,94.614 252.905,92.274 253.033 C 83.992 253.486,78.598 253.987,74.671 254.669 L 70.696 255.359 71.279 235.231 C 72.401 196.461,73.534 176.037,74.735 172.917 C 75.066 172.057,75.238 169.097,75.118 166.338 C 74.998 163.579,75.627 152.329,76.515 141.338 C 77.404 130.347,78.323 114.695,78.559 106.557 C 78.794 98.418,79.238 91.352,79.545 90.855 C 80.477 89.348,70.234 89.334,69.166 90.841 M194.171 98.797 C 194.631 99.542,194.177 100.000,192.978 100.000 C 191.913 100.000,190.596 100.411,190.052 100.914 C 189.508 101.416,186.484 102.650,183.333 103.656 C 180.182 104.661,177.039 105.931,176.348 106.478 C 175.657 107.024,174.634 107.189,174.076 106.844 C 173.518 106.498,172.721 106.765,172.307 107.436 C 171.802 108.253,172.008 108.374,172.933 107.803 C 173.918 107.194,174.133 107.418,173.685 108.585 C 173.310 109.563,173.964 110.994,175.313 112.142 C 176.799 113.407,177.135 113.498,176.297 112.409 C 175.244 111.039,175.426 110.548,177.357 109.551 C 181.772 107.272,188.542 105.301,188.542 106.296 C 188.542 106.844,188.996 107.292,189.551 107.292 C 190.106 107.292,190.304 106.626,189.992 105.812 C 189.624 104.853,190.237 104.212,191.734 103.989 C 194.339 103.602,196.425 99.447,194.585 98.310 C 193.885 97.877,193.721 98.069,194.171 98.797 M192.708 107.078 C 192.708 108.171,186.470 111.082,185.079 110.639 C 184.607 110.488,184.496 110.812,184.834 111.358 C 185.171 111.903,184.620 112.617,183.609 112.943 C 182.598 113.269,180.300 114.918,178.502 116.607 C 176.705 118.296,174.941 119.475,174.584 119.227 C 174.226 118.978,174.633 119.563,175.487 120.527 C 176.935 122.160,177.201 122.129,179.406 120.075 C 180.706 118.863,184.818 116.025,188.542 113.768 C 195.018 109.843,196.823 107.448,194.010 106.510 C 193.294 106.272,192.708 106.527,192.708 107.078 M286.904 163.293 C 287.145 163.534,285.737 165.834,283.775 168.404 C 275.368 179.418,285.585 191.619,296.214 183.258 C 300.554 179.844,300.087 167.517,295.506 164.586 C 293.511 163.310,285.755 162.143,286.904 163.293 M282.733 206.510 C 277.422 212.326,275.017 216.433,273.777 221.807 C 273.118 224.662,272.230 226.782,271.803 226.518 C 271.377 226.254,271.292 227.050,271.615 228.286 C 271.939 229.523,271.778 230.271,271.258 229.949 C 270.708 229.609,270.382 234.874,270.479 242.547 C 270.571 249.797,270.212 256.256,269.680 256.899 C 269.149 257.543,269.007 258.832,269.364 259.764 C 269.722 260.696,269.540 261.458,268.959 261.458 C 268.378 261.458,268.127 262.313,268.400 263.358 C 269.761 268.562,258.662 281.082,252.111 281.734 C 242.701 282.670,233.325 270.558,238.845 264.596 C 239.849 263.512,239.788 263.403,238.542 264.063 C 237.318 264.710,237.244 264.602,238.200 263.568 C 238.871 262.841,239.132 261.483,238.779 260.550 C 238.224 259.083,238.384 259.099,239.968 260.669 C 240.976 261.667,241.495 262.977,241.123 263.579 C 239.676 265.920,242.957 267.800,248.081 267.566 C 250.855 267.440,253.125 266.901,253.125 266.369 C 253.125 265.837,253.832 265.673,254.697 266.005 C 255.561 266.337,257.553 266.077,259.124 265.428 C 260.694 264.778,262.283 264.307,262.654 264.380 C 264.135 264.671,262.114 260.283,260.325 259.326 C 255.324 256.649,245.545 256.589,242.380 259.215 C 241.063 260.308,240.681 260.149,240.080 258.258 C 239.684 257.011,239.762 255.697,240.253 255.339 C 241.349 254.539,241.453 242.708,240.365 242.708 C 239.935 242.708,239.583 242.076,239.583 241.302 C 239.583 240.529,238.208 237.998,236.527 235.677 C 234.847 233.357,233.792 231.138,234.184 230.747 C 234.575 230.355,234.427 230.156,233.854 230.303 C 232.451 230.665,227.083 228.006,227.083 226.949 C 227.083 225.675,224.194 227.050,223.596 228.608 C 223.254 229.500,223.702 229.808,224.890 229.497 C 225.890 229.236,227.319 229.758,228.065 230.657 C 229.360 232.217,228.166 232.882,224.846 232.451 C 224.475 232.402,224.413 233.284,224.707 234.411 C 225.002 235.537,225.685 236.458,226.225 236.458 C 226.765 236.458,226.958 236.859,226.655 237.350 C 226.353 237.840,227.380 238.010,228.938 237.728 C 230.496 237.446,231.423 237.588,230.999 238.043 C 230.574 238.498,230.722 239.468,231.328 240.198 C 232.089 241.115,232.102 242.709,231.369 245.363 C 230.786 247.474,230.579 250.553,230.910 252.205 C 231.240 253.857,231.100 255.208,230.599 255.207 C 229.702 255.207,229.668 260.454,230.506 269.928 C 230.740 272.582,231.890 276.097,233.060 277.741 C 234.230 279.384,235.239 281.081,235.302 281.510 C 235.365 281.940,235.534 282.176,235.677 282.035 C 235.820 281.894,237.344 282.774,239.063 283.989 C 243.264 286.960,257.133 289.773,255.637 287.351 C 255.249 286.723,259.279 285.310,260.417 285.675 C 262.645 286.391,274.453 271.530,275.522 266.664 C 275.899 264.947,276.536 263.542,276.939 263.542 C 277.341 263.542,277.777 262.253,277.907 260.677 C 278.037 259.102,278.502 257.691,278.942 257.543 C 279.381 257.395,279.562 255.403,279.344 253.116 C 279.126 250.829,279.349 248.959,279.839 248.960 C 280.328 248.961,280.569 246.129,280.374 242.667 C 280.179 239.204,280.356 235.570,280.768 234.592 C 281.181 233.613,281.654 231.875,281.819 230.729 C 284.645 211.206,286.681 206.711,291.054 210.341 C 292.674 211.685,296.155 208.422,294.999 206.643 C 292.202 202.333,286.604 202.273,282.733 206.510 " stroke="none" fill="#000000" fill-rule="evenodd"></path></g></svg>